HIERARCHY
ROOT Hips
{
	OFFSET 0.000000 0.000000 0.000000
	CHANNELS 6 Xposition Yposition Zposition Xrotation Yrotation Zrotation
	JOINT LeftUpLeg_virtual
	{
		OFFSET 0.000000 0.000000 0.000000
		CHANNELS 3 Xrotation Yrotation Zrotation
		JOINT LeftUpLeg
		{
			OFFSET 15.427100 -6.655098 0.678600
			CHANNELS 3 Xrotation Yrotation Zrotation
			JOINT LeftLeg
			{
				OFFSET 4.081073 -39.591068 13.024000
				CHANNELS 3 Xrotation Yrotation Zrotation
				JOINT LeftFoot
				{
					OFFSET -4.081074 -37.707932 -15.979700
					CHANNELS 3 Xrotation Yrotation Zrotation
					JOINT LeftToeBase
					{
						OFFSET 5.346399 -15.068900 20.645000
						CHANNELS 3 Xrotation Yrotation Zrotation
						JOINT LeftToe_End
						{
							OFFSET 2.754700 0.931300 11.300900
							CHANNELS 3 Xrotation Yrotation Zrotation
							End Site
							{
								OFFSET 0 0 0
							}
						}
					}
				}
			}
		}
	}
	JOINT RightUpLeg_virtual
	{
		OFFSET 0.000000 0.000000 0.000000
		CHANNELS 3 Xrotation Yrotation Zrotation
		JOINT RightUpLeg
		{
			OFFSET -15.569500 -6.655098 0.678600
			CHANNELS 3 Xrotation Yrotation Zrotation
			JOINT RightLeg
			{
				OFFSET -4.081825 -39.591045 13.023800
				CHANNELS 3 Xrotation Yrotation Zrotation
				JOINT RightFoot
				{
					OFFSET 4.081824 -37.707954 -15.979600
					CHANNELS 3 Xrotation Yrotation Zrotation
					JOINT RightToeBase
					{
						OFFSET -5.346400 -15.068900 20.645000
						CHANNELS 3 Xrotation Yrotation Zrotation
						JOINT RightToe_End
						{
							OFFSET -2.754700 0.931300 11.300900
							CHANNELS 3 Xrotation Yrotation Zrotation
							End Site
							{
								OFFSET 0 0 0
							}
						}
					}
				}
			}
		}
	}
	JOINT Spine_virtual
	{
		OFFSET 0.000000 0.000000 0.000000
		CHANNELS 3 Xrotation Yrotation Zrotation
		JOINT Spine
		{
			OFFSET -0.279200 12.230698 -2.892100
			CHANNELS 3 Xrotation Yrotation Zrotation
			JOINT Spine1
			{
				OFFSET -0.232667 10.192268 -1.242267
				CHANNELS 3 Xrotation Yrotation Zrotation
				JOINT Spine1_split
				{
					OFFSET -0.232667 10.192268 -1.242267
					CHANNELS 3 Xrotation Yrotation Zrotation
					JOINT Spine2
					{
						OFFSET -0.232667 10.192268 -1.242267
						CHANNELS 3 Xrotation Yrotation Zrotation
						JOINT Neck_virtual
						{
							OFFSET 0.000000 0.000000 0.000000
							CHANNELS 3 Xrotation Yrotation Zrotation
							JOINT Neck
							{
								OFFSET -0.418800 17.814194 8.416900
								CHANNELS 3 Xrotation Yrotation Zrotation
								JOINT Head
								{
									OFFSET 0.000000 7.031097 3.806800
									CHANNELS 3 Xrotation Yrotation Zrotation
									JOINT HeadTop_End
									{
										OFFSET 0.000000 24.646606 12.978600
										CHANNELS 3 Xrotation Yrotation Zrotation
										End Site
										{
											OFFSET 0 0 0
										}
									}
								}
							}
						}
						JOINT LeftShoulder_virtual
						{
							OFFSET 0.000000 0.000000 0.000000
							CHANNELS 3 Xrotation Yrotation Zrotation
							JOINT LeftShoulder
							{
								OFFSET 8.476499 7.247704 -3.868750
								CHANNELS 3 Xrotation Yrotation Zrotation
								JOINT LeftShoulder_split
								{
									OFFSET 8.476499 7.247704 -3.868750
									CHANNELS 3 Xrotation Yrotation Zrotation
									JOINT LeftArm
									{
										OFFSET 9.308998 -2.777710 0.208600
										CHANNELS 3 Xrotation Yrotation Zrotation
										JOINT LeftForeArm
										{
											OFFSET 29.972298 0.000000 0.000000
											CHANNELS 3 Xrotation Yrotation Zrotation
											JOINT LeftHand
											{
												OFFSET 26.026505 0.000000 0.000000
												CHANNELS 3 Xrotation Yrotation Zrotation
												End Site
												{
													OFFSET 0 0 0
												}
											}
										}
									}
								}
							}
						}
						JOINT RightShoulder_virtual
						{
							OFFSET 0.000000 0.000000 0.000000
							CHANNELS 3 Xrotation Yrotation Zrotation
							JOINT RightShoulder
							{
								OFFSET -7.570500 7.247704 -3.868750
								CHANNELS 3 Xrotation Yrotation Zrotation
								JOINT RightShoulder_split
								{
									OFFSET -7.570500 7.247704 -3.868750
									CHANNELS 3 Xrotation Yrotation Zrotation
									JOINT RightArm
									{
										OFFSET -9.308998 -2.777710 0.208500
										CHANNELS 3 Xrotation Yrotation Zrotation
										JOINT RightForeArm
										{
											OFFSET -29.972300 0.000000 0.000000
											CHANNELS 3 Xrotation Yrotation Zrotation
											JOINT RightHand
											{
												OFFSET -26.026505 0.000000 0.000000
												CHANNELS 3 Xrotation Yrotation Zrotation
												End Site
												{
													OFFSET 0 0 0
												}
											}
										}
									}
								}
							}
						}
					}
				}
			}
		}
	}
}
MOTION
Frames: 4
Frame Time: 0.03333333
-0.074665 67.252777 -84.730804 0.000000 0.000000 0.000000 38.141952 -70.408725 31.064916 -60.997995 -23.561614 29.855269 45.097181 -8.452065 8.785838 13.712294 2.359851 -20.834059 -8.985951 -0.000029 -0.000001 0.000000 0.000000 0.000000 38.141952 -70.408725 31.064916 -12.636647 6.647862 -33.400260 40.536684 2.141722 -2.469543 -6.837130 -35.859986 39.777458 -2.393491 0.000008 -0.000011 0.000000 0.000000 0.000000 38.141952 -70.408725 31.064916 0.974249 12.504797 -4.750683 -1.467007 7.682358 -3.047188 0.000000 0.000000 0.000000 0.000000 0.000000 0.000000 -1.482612 3.090856 1.162857 13.645831 4.837659 -4.250171 2.800514 15.085514 7.206376 0.000000 0.000000 0.000000 -1.482612 3.090856 1.162857 4.004426 5.439219 -12.961318 0.000000 0.000000 0.000000 -56.010522 -35.589227 -51.025468 0.000037 -82.017677 0.000084 0.000000 0.000000 0.000000 -1.482612 3.090856 1.162857 -14.388968 3.880204 -3.771192 0.000000 0.000000 0.000000 -98.939750 39.793468 121.270801 0.000002 35.519825 -0.000002 0.000000 0.000000 0.000000 
0.851282 69.056229 -92.801941 0.000000 0.000000 0.000000 36.712615 -69.677239 29.842483 -61.005836 -23.259185 28.682082 39.720887 -5.478733 8.753972 21.152256 2.221529 -14.267458 -2.199493 0.002533 -0.556279 0.000000 0.000000 0.000000 36.712615 -69.677239 29.842483 -17.521785 6.240400 -30.573843 45.931349 0.101772 1.348130 -11.731739 -33.544726 37.484993 -1.798245 0.000021 0.000000 0.000000 0.000000 0.000000 36.712615 -69.677239 29.842483 0.905624 10.509592 -4.247019 -1.602551 6.808461 -2.710773 0.000000 0.000000 0.000000 0.000000 0.000000 0.000000 -1.615875 2.233989 1.483569 13.856778 5.273890 -5.005345 3.706268 16.403027 6.692206 0.000000 0.000000 0.000000 -1.615875 2.233989 1.483569 4.053405 5.979539 -12.991225 0.000000 0.000000 0.000000 -54.011616 -35.171670 -50.958576 -0.000327 -82.344802 -0.000336 0.000000 0.000000 0.000000 -1.615875 2.233989 1.483569 -14.532547 3.553458 -4.417810 0.000000 0.000000 0.000000 -100.457773 41.260920 122.940236 0.000016 34.452936 -0.000013 0.000000 0.000000 0.000000 
1.858845 70.609100 -100.126266 0.000000 0.000000 0.000000 34.169715 -67.697174 26.569077 -65.072264 -20.367298 25.060434 36.607314 -4.421742 8.872126 25.223812 0.620016 -12.006363 -0.579749 0.012669 -1.251410 0.000000 0.000000 0.000000 34.169715 -67.697174 26.569077 -21.073468 2.683322 -29.193287 49.100939 -3.725243 6.560253 -15.741347 -27.171497 35.870436 -1.156854 0.000019 0.000009 0.000000 0.000000 0.000000 34.169715 -67.697174 26.569077 0.846724 8.347250 -2.717657 -1.619446 5.518444 -2.231737 0.000000 0.000000 0.000000 0.000000 0.000000 0.000000 -1.616524 0.925570 1.956718 13.288389 5.956499 -5.383661 2.808269 18.062145 6.550450 0.000000 0.000000 0.000000 -1.616524 0.925570 1.956718 3.900272 5.904401 -12.522478 0.000000 0.000000 0.000000 -52.948671 -33.982804 -50.979849 0.000268 -82.394061 0.000249 0.000000 0.000000 0.000000 -1.616524 0.925570 1.956718 -14.701916 3.010199 -5.023189 0.000000 0.000000 0.000000 -104.458871 42.452296 125.685357 0.000021 31.733161 -0.000014 0.000000 0.000000 0.000000 
2.467813 72.020309 -106.144958 0.000000 0.000000 0.000000 33.282539 -66.198002 24.745767 -70.517605 -16.415760 20.185506 39.816905 -4.723785 7.820271 24.782003 -0.915856 -13.161092 -0.877240 0.029479 -1.924693 0.000000 0.000000 0.000000 33.282539 -66.198002 24.745767 -25.764220 -2.416329 -25.215455 52.063445 -3.969654 6.911004 -19.257572 -25.037952 29.692205 -1.187229 -0.000012 0.000002 0.000000 0.000000 0.000000 33.282539 -66.198002 24.745767 0.892225 7.032824 -1.359428 -1.589167 4.608915 -2.015178 0.000000 0.000000 0.000000 0.000000 0.000000 0.000000 -1.578578 -0.026342 2.171802 12.586900 6.539992 -5.118967 0.875522 19.378959 7.162004 0.000000 0.000000 0.000000 -1.578578 -0.026342 2.171802 3.662905 5.270448 -11.900311 0.000000 0.000000 0.000000 -53.075433 -32.931115 -50.693544 -0.000344 -82.372081 -0.000324 0.000000 0.000000 0.000000 -1.578578 -0.026342 2.171802 -14.769628 2.520844 -5.024784 0.000000 0.000000 0.000000 -107.407074 42.298993 127.414201 -0.000004 29.536672 0.000001 0.000000 0.000000 0.000000 
